Coordinates
version=1
nRows=15
nColumns=33
inDegrees=yes

Units are S.I. units (second, meters, Newtons, ...)
Angles are in degrees.

endheader
time	ground_thorax_rot_x	ground_thorax_rot_y	ground_thorax_rot_z	ground_thorax_tx	ground_thorax_ty	ground_thorax_tz	clav_prot_r	clav_elev_r	scapula_abduction_r	scapula_elevation_r	scapula_upward_rot_r	scapula_winging_r	shoulder_elv_r	plane_of_elev_r	axial_rot_r	elbow_flexion_r	pro_sup_r	wrist_flex_r	wrist_dev_r	clav_prot_l	clav_elev_l	scapula_abduction_l	scapula_elevation_l	scapula_upward_rot_l	scapula_winging_l	shoulder_elv_l	plane_of_elev_l	axial_rot_l	elbow_flexion_l	pro_sup_l	wrist_flex_l	wrist_dev_l	
7.4100	-2.976394	5.152411	8.437413	-0.093989	1.025680	0.013695	17.110112	-13.373203	43.267847	-13.830099	24.157501	-12.106115	-1.544396	-53.985677	122.801041	-31.331624	-124.799739	-3.272445	10.138243	26.360477	-11.734338	-39.576007	-5.389562	-25.150881	13.575905	56.113359	2.914022	4.411085	13.187664	20.912191	20.824864	-4.695357	
7.4200	-2.941127	5.202239	8.316289	-0.093164	1.026068	0.013889	17.230632	-13.363352	43.479104	-13.825747	24.194507	-12.212622	-1.649113	-54.242663	122.888300	-31.431176	-125.279512	-3.100197	9.879453	26.427114	-11.728451	-39.690089	-5.340191	-25.040888	13.654013	56.005473	2.953254	4.283926	12.920458	20.591091	20.719406	-4.749997	
7.4300	-2.894678	5.258278	8.193017	-0.092454	1.026394	0.014077	17.366050	-13.342577	43.715036	-13.811432	24.232340	-12.339133	-1.778819	-54.554819	122.964795	-31.563580	-126.019343	-2.861396	9.528501	26.496065	-11.713547	-39.809870	-5.290119	-24.913666	13.739502	55.879064	2.988896	4.160880	12.648370	20.150288	20.565103	-4.828175	
7.4400	-2.839039	5.310601	8.099979	-0.091840	1.026632	0.014284	17.473616	-13.295562	43.868963	-13.760458	24.209785	-12.451989	-1.927950	-54.847927	122.952331	-31.698509	-127.080362	-2.566011	9.123618	26.524623	-11.677710	-39.865012	-5.280100	-24.830430	13.787968	55.757871	2.971826	4.147928	12.547231	19.612005	20.354442	-4.937554	
7.4500	-2.784988	5.355210	8.033120	-0.091379	1.026793	0.014492	17.563121	-13.254539	43.962870	-13.703185	24.139829	-12.539217	-2.095664	-55.148891	122.873016	-31.801065	-128.777378	-2.167328	8.601093	26.514359	-11.625624	-39.857622	-5.301705	-24.781629	13.799910	55.655875	2.898198	4.174716	12.570752	18.902187	20.090730	-5.068743	
7.4600	-2.730286	5.392727	7.999139	-0.091075	1.026859	0.014708	17.625525	-13.218614	43.965282	-13.632413	23.996150	-12.589736	-2.274787	-55.444503	122.739563	-31.912104	-131.047447	-1.682053	7.980231	26.458598	-11.559147	-39.776368	-5.354774	-24.769305	13.767499	55.574429	2.765063	4.257365	12.730690	18.051377	19.794919	-5.217042	
7.4700	-2.687808	5.422037	7.989655	-0.090928	1.026879	0.014917	17.642862	-13.233289	43.831878	-13.582361	23.758168	-12.554723	-2.415988	-55.722213	122.620501	-32.038374	-133.920959	-1.137625	7.312442	26.353727	-11.494034	-39.613010	-5.426110	-24.792811	13.681508	55.548456	2.573108	4.336381	12.995532	17.126315	19.538855	-5.356340	
7.4800	-2.654323	5.442916	8.008370	-0.090907	1.026830	0.015131	17.607974	-13.281721	43.543019	-13.534828	23.411165	-12.437217	-2.510352	-55.949202	122.532617	-32.248625	-136.960971	-0.602150	6.702090	26.206647	-11.428814	-39.379112	-5.514239	-24.846994	13.549598	55.566018	2.333343	4.453177	13.366564	16.248009	19.356561	-5.490539	
7.4900	-2.638114	5.459083	8.040962	-0.091009	1.026751	0.015331	17.515382	-13.397781	43.093583	-13.520529	22.962928	-12.211197	-2.539924	-56.142055	122.520185	-32.557790	-140.174466	-0.088887	6.187058	26.029246	-11.366562	-39.094018	-5.611942	-24.923213	13.383704	55.634323	2.061271	4.567461	13.812226	15.447792	19.264908	-5.624191	
7.5000	-2.623566	5.473036	8.088311	-0.091210	1.026596	0.015539	17.378440	-13.524066	42.519366	-13.493567	22.430151	-11.928953	-2.535863	-56.280250	122.543093	-33.036323	-142.998273	0.341783	5.842900	25.839408	-11.300916	-38.788234	-5.719842	-25.013514	13.205024	55.718224	1.779857	4.744686	14.332252	14.823478	19.243065	-5.771132	
7.5100	-2.614791	5.486472	8.152058	-0.091514	1.026402	0.015747	17.206406	-13.675466	41.843442	-13.469237	21.826658	-11.590016	-2.509146	-56.380891	122.589676	-33.666860	-145.473370	0.703115	5.687507	25.643195	-11.243276	-38.470018	-5.830487	-25.123272	13.015657	55.825661	1.486824	4.944913	14.915140	14.368197	19.280795	-5.934771	
7.5200	-2.602077	5.492035	8.231023	-0.091898	1.026128	0.015977	17.022736	-13.793369	41.135410	-13.407621	21.196725	-11.259968	-2.513449	-56.428787	122.583241	-34.448852	-147.308799	0.988035	5.711546	25.446948	-11.182212	-38.151273	-5.954693	-25.255973	12.825628	55.934205	1.191638	5.218844	15.584480	14.088613	19.326550	-6.121625	
7.5300	-2.592888	5.495529	8.316189	-0.092367	1.025839	0.016198	16.836601	-13.929751	40.413026	-13.354890	20.549772	-10.912545	-2.556025	-56.487051	122.536302	-35.361261	-148.922022	1.250437	5.841839	25.246840	-11.127573	-37.824537	-6.085430	-25.413807	12.627909	56.061489	0.895188	5.497819	16.322401	13.895786	19.352294	-6.333191	
7.5400	-2.575562	5.492451	8.395173	-0.092893	1.025515	0.016420	16.656075	-14.037005	39.711517	-13.277935	19.915945	-10.591355	-2.653682	-56.540842	122.437527	-36.408076	-150.113360	1.473183	6.028710	25.042989	-11.069813	-37.491471	-6.229043	-25.593009	12.425984	56.192053	0.616810	5.821505	17.134894	13.809998	19.346606	-6.553610	
7.5500	-2.554259	5.482731	8.482706	-0.093467	1.025204	0.016623	16.472509	-14.147397	39.000972	-13.198796	19.273174	-10.263988	-2.794389	-56.614214	122.332142	-37.577053	-151.100934	1.672562	6.233457	24.826512	-11.018614	-37.136105	-6.383596	-25.805685	12.206642	56.333493	0.343960	6.165353	18.024544	13.817708	19.324596	-6.778680	
